# xmcd
#
# Track frame offsets:
#	150
#	8246
#	36611
#	70699
#	100778
#	129272
#	164046
#	199203
#	225029
#	246400
#	285500
#
# Disc length: 4343 seconds
#
# Revision: 11
# Processed by: cddbd v1.5.2PL0 Copyright (c) Steve Scherf et al.
# Submitted via: EasyCDDAExtractor 11.0.2.1
#
DISCID=9210f50b
DTITLE=YOGACHARYA SWAMI SADHANANADA GIRI  - SADHANANGEET VOL.2
DYEAR=2005
DGENRE=
TTITLE0=01 OM PURNAMADAH PURNAMIDANG
TTITLE1=02 GURU NAMER TARI BHARSA KARI
TTITLE2=03 AMAKE AMI AMYIE JANI NA
TTITLE3=04 EKTI BRIKSHE DUTI PAKHI
TTITLE4=05 APAN MONE APAN PRANE
TTITLE5=06 KOTHAY GELI MAGO AMAY
TTITLE6=07 DEHA MAJHE PRAN JAJNYA (SANSKRIT)
TTITLE7=08 SADHU SANGA MAHA SANGA SE SADHU SANGA 
TTITLE8=09 KHUNJICHHO KENO BAHIRE TAHARE 
TTITLE9=10 MA TARA BACHINA AAR JWARE
TTITLE10=11 BIRAT TUMI MAHAN TUMI
EXTD=
EXTT0=
EXTT1=
EXTT2=
EXTT3=
EXTT4=
EXTT5=
EXTT6=
EXTT7=
EXTT8=
EXTT9=
EXTT10=
PLAYORDER=
